<svg width="14" height="14" viewBox="0 0 14 14" fill="none" xmlns="http://www.w3.org/2000/svg">
<path fill-rule="evenodd" clip-rule="evenodd" d="M7.88332 0.165291C6.89147 0.0450664 5.88837 0.268505 5.04132 0.798345C4.253 1.29145 3.64418 2.02219 3.30086 2.88247C2.87213 2.92977 2.45459 3.05187 2.06732 3.24362C1.63275 3.45878 1.24482 3.75744 0.925672 4.12253C0.281123 4.85986 -0.0441218 5.82304 0.021486 6.80017C0.0870937 7.77731 0.53818 8.68836 1.27551 9.33291C1.52876 9.55429 1.80864 9.738 2.10659 9.88114C2.23804 9.09496 2.79907 8.38069 3.78967 8.20836C4.35799 8.10949 4.81055 7.67811 4.93687 7.11585L4.95974 7.01146C5.43542 4.83845 8.52951 4.82492 9.02417 6.9937L9.03426 7.03814C9.04117 7.06865 9.04651 7.09221 9.05195 7.11538C9.184 7.6778 9.63924 8.10763 10.2091 8.20676C11.2604 8.38966 11.8282 9.18251 11.9126 10.0243C12.2787 9.884 12.6192 9.67707 12.9157 9.41068C13.5037 8.88231 13.8775 8.15668 13.9664 7.37119C14.0553 6.58569 13.8531 5.79486 13.398 5.14845C12.9806 4.55545 12.377 4.12175 11.6861 3.91417C11.5608 2.99088 11.1431 2.12994 10.4918 1.45901C9.79584 0.742138 8.87518 0.285516 7.88332 0.165291ZM6.18083 7.27876C6.37097 6.41016 7.60774 6.40476 7.80546 7.27166L7.81528 7.3149C7.82201 7.34462 7.8283 7.37239 7.83504 7.4011C8.08155 8.451 8.93122 9.25323 9.99482 9.43826C10.8999 9.59573 10.8999 10.8951 9.99482 11.0525C8.92555 11.2386 8.0725 12.0484 7.83115 13.1065L7.80546 13.2191C7.60774 14.086 6.37097 14.0806 6.18083 13.212L6.15968 13.1154C5.92716 12.0532 5.07515 11.2373 4.00391 11.0509C3.10059 10.8938 3.10058 9.59701 4.00391 9.43986C5.07142 9.25414 5.92123 8.44323 6.15722 7.38648L6.17294 7.31494L6.18083 7.27876Z" fill="#075A5A"/>
</svg>
